<svg width="195" height="35" viewBox="0 0 195 35" fill="none" xmlns="http://www.w3.org/2000/svg">
<g clip-path="url(#clip0_9_170)">
<path d="M47.1653 5.36008C48.9173 5.36008 50.3632 5.57151 51.5036 5.99408C52.6435 6.41665 53.491 7.05499 54.0457 7.90895C54.6004 8.76305 54.8777 9.84159 54.8777 11.1444C54.8777 12.0248 54.7103 12.7953 54.3758 13.4556C54.0411 14.1159 53.601 14.675 53.0552 15.1327C52.5092 15.5904 51.9194 15.9645 51.2856 16.255L56.9642 24.6673H52.4213L47.8125 17.2588H45.6334V24.6673H41.5397V5.36008H47.1653ZM46.8749 8.71435H45.6334V13.9307H46.954C48.3096 13.9307 49.2804 13.7042 49.866 13.2507C50.4515 12.7973 50.7442 12.1305 50.7442 11.2499C50.7442 10.3344 50.4294 9.68291 49.8 9.29532C49.1705 8.90801 48.1955 8.71435 46.8749 8.71435Z" fill="white"/>
<path d="M64.4493 9.59938C66.4302 9.59938 67.949 10.0308 69.0055 10.8934C70.062 11.7565 70.5902 13.0682 70.5902 14.8288V24.6673H67.7773L66.9982 22.6599H66.8925C66.4698 23.1881 66.0384 23.6195 65.5982 23.9541C65.158 24.2889 64.6518 24.5351 64.0795 24.6936C63.5071 24.8521 62.8116 24.9313 61.9931 24.9313C61.1215 24.9313 60.34 24.764 59.6489 24.4295C58.9577 24.095 58.4142 23.5822 58.018 22.8909C57.6218 22.2 57.4237 21.3217 57.4237 20.2564C57.4237 18.6894 57.9739 17.5339 59.0745 16.7898C60.1749 16.046 61.8257 15.6343 64.0269 15.5551L66.5889 15.4759V14.8288C66.5889 14.0543 66.3863 13.4863 65.9813 13.1253C65.5763 12.7643 65.0128 12.5838 64.2911 12.5838C63.5779 12.5838 62.878 12.6851 62.1912 12.8876C61.5046 13.0902 60.8179 13.3454 60.1311 13.6537L58.7972 10.9331C59.5808 10.5195 60.4589 10.1936 61.4318 9.95604C62.4046 9.71831 63.4105 9.59952 64.4493 9.59952V9.59938ZM66.5888 17.8265L65.0304 17.8794C63.7274 17.9147 62.8228 18.1481 62.3164 18.5793C61.8102 19.0108 61.5571 19.5786 61.5571 20.2829C61.5571 20.8993 61.7374 21.3374 62.0986 21.5969C62.4594 21.8566 62.9304 21.9865 63.5117 21.9865C64.3743 21.9865 65.1029 21.7312 65.6972 21.2204C66.2914 20.7101 66.5886 19.9837 66.5886 19.0415L66.5888 17.8265Z" fill="white"/>
<path d="M82.4467 9.62554C84.0225 9.62554 85.2902 10.0548 86.25 10.9133C87.2095 11.7717 87.6894 13.1473 87.6894 15.0401V24.6673H83.6617V16.0437C83.6617 14.9872 83.4701 14.1906 83.0873 13.6535C82.7043 13.1165 82.1035 12.8479 81.2846 12.8479C80.0519 12.8479 79.2114 13.2661 78.7624 14.1024C78.3133 14.939 78.0889 16.1452 78.0889 17.7209V24.6673H74.061V9.90287H77.138L77.6795 11.7913H77.9039C78.2208 11.2808 78.6147 10.8671 79.0857 10.55C79.5566 10.233 80.0806 9.99984 80.6572 9.85012C81.2337 9.70054 81.8303 9.62554 82.4467 9.62554Z" fill="white"/>
<path d="M95.1877 4.11882V13.3102C95.1877 13.865 95.1656 14.4195 95.1216 14.9743C95.0774 15.529 95.0291 16.0836 94.9762 16.6383H95.0291C95.3018 16.2508 95.5815 15.868 95.8677 15.4894C96.1537 15.111 96.4596 14.7455 96.7856 14.3933L100.919 9.90315H105.462L99.5985 16.3081L105.819 24.6674H101.17L96.9175 18.6851L95.1877 20.0716V24.6674H91.1598V4.11882H95.1877Z" fill="white"/>
<path d="M109.276 4.11882C109.875 4.11882 110.39 4.25734 110.821 4.53481C111.252 4.81214 111.468 5.32958 111.468 6.08657C111.468 6.83503 111.252 7.35219 110.821 7.63834C110.39 7.92448 109.875 8.06734 109.276 8.06734C108.668 8.06734 108.151 7.92448 107.724 7.63834C107.297 7.35219 107.084 6.83503 107.084 6.08657C107.084 5.32958 107.297 4.81228 107.724 4.53481C108.151 4.25748 108.668 4.11882 109.276 4.11882ZM111.283 9.90287V24.6673H107.255V9.90287H111.283Z" fill="white"/>
<path d="M122.994 12.9272H119.508V24.6673H115.48V12.9272H113.261V10.9859L115.48 9.90301V8.82028C115.48 7.56124 115.693 6.58177 116.121 5.88186C116.547 5.18196 117.151 4.68901 117.93 4.40286C118.709 4.11686 119.631 3.97371 120.696 3.97371C121.48 3.97371 122.193 4.03766 122.836 4.16513C123.478 4.29288 124.002 4.43603 124.407 4.59428L123.377 7.55256C123.069 7.45587 122.734 7.36758 122.373 7.28825C122.012 7.20905 121.599 7.16945 121.132 7.16945C120.569 7.16945 120.157 7.33904 119.897 7.67794C119.638 8.01683 119.508 8.45046 119.508 8.97867V9.90301H122.994V12.9272Z" fill="white"/>
<path d="M122.516 9.90287H126.927L129.713 18.2095C129.801 18.4735 129.876 18.7423 129.938 19.015C129.999 19.288 130.052 19.5697 130.096 19.8602C130.14 20.1507 130.175 20.4546 130.202 20.7715H130.281C130.334 20.2962 130.406 19.8516 130.499 19.4377C130.591 19.024 130.708 18.6146 130.849 18.2096L133.583 9.90301H137.901L131.654 26.5558C131.276 27.577 130.783 28.4289 130.175 29.1113C129.568 29.7934 128.87 30.3064 128.082 30.6498C127.294 30.9931 126.429 31.1648 125.487 31.1648C125.029 31.1648 124.633 31.1405 124.299 31.0921C123.964 31.0436 123.678 30.9931 123.44 30.9402V27.7444C123.625 27.7883 123.858 27.828 124.14 27.8633C124.422 27.8984 124.717 27.9162 125.025 27.9162C125.588 27.9162 126.073 27.7973 126.478 27.5595C126.883 27.3218 127.222 27.0026 127.495 26.6022C127.767 26.2014 127.983 25.7635 128.142 25.2881L128.379 24.5618L122.516 9.90301L122.516 9.90287Z" fill="white"/>
<path d="M155.373 9.67857C155.373 10.5678 155.188 11.3381 154.818 11.9896C154.448 12.6412 153.948 13.1737 153.319 13.5875C152.69 14.0015 151.983 14.3052 151.2 14.4987V14.5779C152.749 14.7717 153.927 15.2471 154.732 16.0041C155.538 16.7614 155.941 17.7736 155.941 19.0415C155.941 20.1686 155.665 21.1766 155.115 22.0657C154.565 22.9549 153.718 23.6548 152.573 24.1654C151.428 24.6758 149.954 24.9315 148.149 24.9315C147.084 24.9315 146.091 24.8457 145.171 24.674C144.251 24.5022 143.386 24.2402 142.576 23.8882V20.4151C143.404 20.8377 144.271 21.1569 145.178 21.3725C146.084 21.5884 146.93 21.696 147.713 21.696C149.175 21.696 150.198 21.4429 150.784 20.9366C151.369 20.4304 151.662 19.7196 151.662 18.8039C151.662 18.267 151.525 17.8134 151.252 17.4435C150.979 17.0737 150.506 16.7922 149.833 16.5984C149.159 16.4047 148.219 16.3079 147.013 16.3079H145.547V13.1781H147.04C148.228 13.1781 149.133 13.0657 149.754 12.8414C150.374 12.6168 150.797 12.3087 151.021 11.9169C151.246 11.5253 151.358 11.0785 151.358 10.5766C151.358 9.89 151.147 9.35297 150.724 8.96538C150.302 8.57807 149.597 8.38441 148.611 8.38441C147.995 8.38441 147.434 8.46165 146.928 8.61557C146.421 8.76977 145.966 8.95447 145.561 9.17009C145.156 9.38599 144.799 9.59504 144.491 9.79737L142.602 6.98447C143.359 6.43876 144.247 5.98527 145.263 5.62426C146.28 5.26326 147.493 5.08276 148.902 5.08276C150.891 5.08276 152.467 5.4835 153.63 6.28457C154.792 7.08577 155.373 8.2172 155.373 9.67857Z" fill="white"/>
<path d="M157.285 16.4663C157.285 15.357 157.366 14.259 157.529 13.1715C157.692 12.0842 157.976 11.0584 158.381 10.0946C158.786 9.13035 159.354 8.27667 160.085 7.53241C160.815 6.78857 161.744 6.20313 162.871 5.77608C163.998 5.34903 165.363 5.13565 166.965 5.13565C167.343 5.13565 167.786 5.15104 168.292 5.18182C168.798 5.21275 169.219 5.26326 169.553 5.33364V8.59556C169.201 8.51636 168.825 8.4527 168.424 8.40414C168.024 8.35587 167.625 8.33152 167.229 8.33152C165.627 8.33152 164.388 8.58688 163.512 9.09747C162.636 9.60805 162.02 10.3147 161.663 11.2169C161.306 12.1196 161.097 13.1693 161.036 14.3666H161.207C161.454 13.9354 161.764 13.5525 162.138 13.2177C162.512 12.8831 162.968 12.6167 163.505 12.4187C164.042 12.2207 164.672 12.1215 165.394 12.1215C166.521 12.1215 167.498 12.3616 168.325 12.8414C169.153 13.3214 169.791 14.0147 170.24 14.9213C170.689 15.8281 170.914 16.9331 170.914 18.2359C170.914 19.6271 170.645 20.8244 170.108 21.8279C169.571 22.8318 168.812 23.5999 167.83 24.1325C166.848 24.6653 165.684 24.9315 164.337 24.9315C163.351 24.9315 162.431 24.7617 161.577 24.423C160.723 24.0842 159.975 23.5669 159.332 22.8713C158.689 22.1758 158.187 21.2978 157.827 20.2366C157.465 19.1759 157.285 17.9191 157.285 16.4663H157.285ZM164.258 21.6694C165.059 21.6694 165.71 21.3967 166.212 20.8506C166.714 20.3049 166.965 19.4508 166.965 18.2887C166.965 17.3467 166.747 16.605 166.311 16.0635C165.876 15.522 165.217 15.2513 164.337 15.2513C163.738 15.2513 163.212 15.3855 162.759 15.654C162.305 15.9227 161.955 16.2615 161.709 16.6709C161.463 17.0803 161.339 17.5009 161.339 17.9322C161.339 18.3812 161.401 18.8259 161.524 19.2661C161.647 19.7063 161.832 20.1069 162.079 20.4677C162.325 20.8287 162.631 21.1194 162.997 21.3393C163.362 21.5596 163.782 21.6694 164.258 21.6694H164.258Z" fill="white"/>
<path d="M179.231 12.3329C180.41 12.3329 181.46 12.5574 182.38 13.0064C183.3 13.4554 184.025 14.1157 184.553 14.9872C185.081 15.8588 185.345 16.933 185.345 18.2095C185.345 19.6005 185.057 20.8 184.48 21.8082C183.903 22.8164 183.045 23.589 181.905 24.1256C180.765 24.6629 179.345 24.9313 177.646 24.9313C176.634 24.9313 175.68 24.8455 174.787 24.6739C173.893 24.502 173.112 24.2401 172.443 23.888V20.3621C173.112 20.7143 173.915 21.0115 174.853 21.2534C175.79 21.4956 176.673 21.6166 177.501 21.6166C178.311 21.6166 178.993 21.5089 179.548 21.2931C180.102 21.0775 180.523 20.743 180.809 20.2896C181.095 19.8362 181.238 19.2574 181.238 18.5529C181.238 17.611 180.921 16.889 180.287 16.3871C179.653 15.8852 178.68 15.6343 177.369 15.6343C176.867 15.6343 176.345 15.6829 175.804 15.7796C175.262 15.8765 174.811 15.9734 174.45 16.0702L172.826 15.1986L173.552 5.36008H184.024V8.82028H177.131L176.774 12.6103C177.074 12.5488 177.399 12.4871 177.752 12.4256C178.104 12.3641 178.597 12.3331 179.231 12.3331L179.231 12.3329Z" fill="white"/>
<path d="M190.523 5.35981C188.431 5.35981 186.736 7.05541 186.736 9.14714C186.736 11.2389 188.431 12.9345 190.523 12.9345C192.615 12.9345 194.31 11.2389 194.31 9.14714C194.31 7.05541 192.615 5.35981 190.523 5.35981ZM190.523 12.1771C188.85 12.1771 187.493 10.8205 187.493 9.14714C187.493 7.47378 188.85 6.11722 190.523 6.11722C192.196 6.11722 193.553 7.47378 193.553 9.14714C193.553 10.8205 192.196 12.1771 190.523 12.1771ZM190.618 9.6282H190.072V10.8516H189.387V7.52248H190.621C190.946 7.50261 191.266 7.59482 191.53 7.78386C191.751 7.97094 191.87 8.25246 191.849 8.54127C191.856 8.74094 191.804 8.93851 191.701 9.10936C191.594 9.27825 191.438 9.41034 191.254 9.48814L191.974 10.8478V10.8857H191.239L190.618 9.66234M190.072 9.10936H190.625C190.77 9.11748 190.912 9.07004 191.023 8.97685C191.124 8.87821 191.176 8.73898 191.163 8.59808C191.175 8.45871 191.126 8.32103 191.03 8.2193C190.918 8.12052 190.77 8.07266 190.621 8.08679H190.072V9.10936Z" fill="white"/>
<path d="M34.1528 14.5723L25.9731 0.384932C25.8356 0.146641 25.5817 0 25.3066 0H8.94901C8.67406 0 8.41995 0.146781 8.28255 0.384932L0.102844 14.5723C-0.0342815 14.81 -0.0342815 15.1029 0.102844 15.3408L8.28255 29.528C8.41981 29.7663 8.67392 29.9129 8.94901 29.9129H25.3066C25.5815 29.9129 25.8356 29.7661 25.9731 29.528L34.1528 15.3408C34.2899 15.1029 34.2899 14.8102 34.1528 14.5723ZM32.0599 15.2937L24.886 27.7048C24.7655 27.9131 24.5432 28.0414 24.3026 28.0414H23.1701V16.7017C23.6302 16.388 23.9324 15.8599 23.9324 15.261C23.9324 14.2986 23.1522 13.5182 22.1896 13.5182C21.2271 13.5182 20.4469 14.2985 20.4469 15.261C20.4469 15.8599 20.7491 16.388 21.2092 16.7017V28.0414H18.1082V9.58259H21.4461L17.1279 4.91652L12.8097 9.58259H16.1476V28.0413H13.0466V20.187C13.5066 19.8733 13.8089 19.3453 13.8089 18.7464C13.8089 17.784 13.0286 17.0036 12.0661 17.0036C11.1036 17.0036 10.3233 17.7838 10.3233 18.7464C10.3233 19.3453 10.6256 19.8733 11.0857 20.187V28.0413H9.95325C9.71258 28.0413 9.49024 27.913 9.3699 27.7046L2.19583 15.2937C2.07522 15.0851 2.07522 14.8279 2.19583 14.6193L9.36976 2.20815C9.4901 1.9998 9.71244 1.87149 9.95311 1.87149H24.3025C24.5432 1.87149 24.7655 1.9998 24.8858 2.20815L32.0598 14.6192C32.1804 14.8278 32.1804 15.085 32.0598 15.2936L32.0599 15.2937ZM21.5874 15.2609C21.5874 14.9283 21.857 14.6588 22.1895 14.6588C22.522 14.6588 22.7916 14.9284 22.7916 15.2609C22.7916 15.5933 22.522 15.863 22.1895 15.863C21.857 15.863 21.5874 15.5935 21.5874 15.2609ZM11.4639 18.7464C11.4639 18.4138 11.7335 18.1443 12.066 18.1443C12.3984 18.1443 12.6681 18.4139 12.6681 18.7464C12.6681 19.0788 12.3984 19.3485 12.066 19.3485C11.7335 19.3485 11.4639 19.079 11.4639 18.7464Z" fill="#C29C2E"/>
<path d="M137.131 33.6553L136.732 32.5457H135.204L134.813 33.6553H134.125L135.62 29.6434H136.33L137.825 33.6553H137.131ZM136.56 31.9828L136.185 30.8952C136.158 30.8224 136.12 30.7077 136.072 30.5508C136.024 30.3942 135.99 30.2795 135.972 30.2065C135.923 30.4306 135.851 30.6758 135.756 30.9416L135.396 31.9828H136.56Z" fill="white"/>
<path d="M141.861 32.5459C141.861 32.7828 141.803 32.9886 141.688 33.1635C141.574 33.3384 141.406 33.4734 141.187 33.568C140.967 33.6629 140.701 33.7102 140.388 33.7102C140.249 33.7102 140.114 33.7012 139.982 33.6829C139.85 33.6647 139.723 33.6378 139.602 33.6023C139.481 33.5668 139.366 33.5228 139.256 33.4698V32.6827C139.446 32.7667 139.642 32.8424 139.846 32.9095C140.05 32.977 140.253 33.0107 140.453 33.0107C140.591 33.0107 140.703 32.9926 140.788 32.956C140.873 32.9196 140.934 32.8697 140.972 32.8057C141.011 32.742 141.03 32.669 141.03 32.5871C141.03 32.4871 140.996 32.4013 140.929 32.3302C140.861 32.2592 140.769 32.1928 140.651 32.1307C140.534 32.069 140.401 32.0023 140.254 31.9312C140.161 31.8875 140.06 31.8342 139.95 31.7712C139.841 31.7083 139.737 31.6316 139.639 31.5404C139.54 31.4494 139.46 31.3387 139.397 31.2083C139.334 31.0782 139.302 30.9219 139.302 30.7396C139.302 30.501 139.357 30.2969 139.466 30.1274C139.576 29.958 139.732 29.8281 139.935 29.738C140.138 29.6478 140.378 29.6027 140.655 29.6027C140.863 29.6027 141.061 29.627 141.25 29.6752C141.438 29.7236 141.635 29.7933 141.841 29.8842L141.568 30.5428C141.384 30.4683 141.219 30.4103 141.073 30.3693C140.927 30.3283 140.779 30.3079 140.628 30.3079C140.522 30.3079 140.432 30.3248 140.357 30.3584C140.282 30.3923 140.226 30.4396 140.188 30.5006C140.15 30.5619 140.13 30.6323 140.13 30.7124C140.13 30.8073 140.158 30.8871 140.214 30.9516C140.269 31.0164 140.353 31.0786 140.465 31.1388C140.577 31.199 140.717 31.2692 140.885 31.3492C141.089 31.4459 141.263 31.5465 141.408 31.6512C141.553 31.7561 141.664 31.8791 141.743 32.0202C141.821 32.1615 141.861 32.337 141.861 32.5463V32.5459Z" fill="white"/>
<path d="M143.631 30.5371C144.041 30.5371 144.355 30.6265 144.574 30.8049C144.792 30.9836 144.902 31.2551 144.902 31.6193V33.6553H144.32L144.158 33.2399H144.137C144.049 33.3492 143.96 33.4386 143.869 33.5077C143.778 33.5771 143.673 33.6279 143.555 33.6608C143.436 33.6935 143.292 33.71 143.123 33.71C142.942 33.71 142.781 33.6755 142.638 33.6062C142.494 33.5371 142.382 33.431 142.3 33.2879C142.218 33.145 142.177 32.9633 142.177 32.7427C142.177 32.4187 142.291 32.1795 142.519 32.0253C142.746 31.8714 143.088 31.7862 143.543 31.7698L144.074 31.7535V31.6196C144.074 31.4594 144.032 31.342 143.948 31.267C143.864 31.1924 143.747 31.1549 143.598 31.1549C143.451 31.1549 143.306 31.1759 143.164 31.2177C143.022 31.2598 142.88 31.3126 142.737 31.3762L142.461 30.8133C142.623 30.7278 142.805 30.6602 143.006 30.6111C143.208 30.5619 143.416 30.5374 143.631 30.5374V30.5371ZM144.074 32.2397L143.751 32.2506C143.481 32.258 143.294 32.3063 143.189 32.3954C143.085 32.4849 143.032 32.6024 143.032 32.7481C143.032 32.8757 143.07 32.9665 143.144 33.0199C143.219 33.0738 143.317 33.1005 143.437 33.1005C143.615 33.1005 143.766 33.0478 143.889 32.942C144.012 32.8365 144.074 32.6862 144.074 32.491V32.2396L144.074 32.2397Z" fill="white"/>
<path d="M147.325 30.5426C147.367 30.5426 147.416 30.5451 147.472 30.5494C147.527 30.554 147.572 30.5601 147.607 30.5672L147.544 31.3488C147.517 31.3399 147.478 31.333 147.428 31.3284C147.378 31.324 147.334 31.3215 147.298 31.3215C147.19 31.3215 147.086 31.3352 146.985 31.3625C146.884 31.3898 146.793 31.4342 146.713 31.495C146.633 31.5563 146.57 31.6364 146.523 31.7356C146.477 31.835 146.454 31.9566 146.454 32.1003V33.6553H145.62V30.5999H146.252L146.375 31.1137H146.416C146.476 31.0099 146.551 30.9148 146.641 30.8282C146.731 30.7418 146.834 30.6724 146.95 30.6205C147.065 30.5686 147.191 30.5426 147.326 30.5426H147.325Z" fill="white"/>
<path d="M148.989 33.71C148.648 33.71 148.371 33.5767 148.157 33.3097C147.943 33.043 147.836 32.6508 147.836 32.1332C147.836 31.6105 147.944 31.2148 148.161 30.9458C148.378 30.6772 148.661 30.5427 149.011 30.5427C149.157 30.5427 149.285 30.563 149.396 30.6029C149.507 30.643 149.603 30.6969 149.685 30.7641C149.766 30.8315 149.834 30.9072 149.891 30.9909H149.918C149.907 30.9327 149.894 30.8466 149.879 30.7326C149.863 30.619 149.855 30.5017 149.855 30.3814V29.403H150.692V33.6555H150.052L149.891 33.2592H149.856C149.803 33.3432 149.737 33.4191 149.657 33.4874C149.578 33.5557 149.484 33.6101 149.375 33.65C149.265 33.6902 149.137 33.7102 148.989 33.7102L148.989 33.71ZM149.282 33.046C149.509 33.046 149.67 32.9782 149.764 32.8424C149.858 32.7068 149.907 32.5021 149.913 32.2288V32.1385C149.913 31.8418 149.867 31.6144 149.776 31.4567C149.685 31.2993 149.515 31.2204 149.268 31.2204C149.084 31.2204 148.94 31.2996 148.836 31.4581C148.732 31.6166 148.68 31.8454 148.68 32.144C148.68 32.4426 148.732 32.6679 148.837 32.819C148.942 32.9704 149.09 33.0458 149.281 33.0458L149.282 33.046Z" fill="white"/>
<path d="M152.684 30.5426C152.966 30.5426 153.209 30.597 153.413 30.7052C153.617 30.8136 153.775 30.9707 153.886 31.1766C153.997 31.3827 154.053 31.6341 154.053 31.9309V32.3354H152.082C152.091 32.5705 152.162 32.7549 152.294 32.8888C152.426 33.0227 152.61 33.0898 152.845 33.0898C153.04 33.0898 153.218 33.0697 153.38 33.0296C153.543 32.9897 153.709 32.9295 153.881 32.8492V33.4941C153.729 33.569 153.571 33.6237 153.406 33.6581C153.241 33.6928 153.042 33.71 152.806 33.71C152.5 33.71 152.229 33.6538 151.993 33.5406C151.757 33.4277 151.572 33.2556 151.439 33.0241C151.305 32.793 151.238 32.5014 151.238 32.1496C151.238 31.7927 151.298 31.495 151.419 31.2573C151.54 31.0196 151.709 30.841 151.926 30.7217C152.143 30.6025 152.395 30.5427 152.683 30.5427L152.684 30.5426ZM152.689 31.1357C152.527 31.1357 152.392 31.1876 152.286 31.2914C152.179 31.3953 152.118 31.5584 152.101 31.7806H153.271C153.269 31.6568 153.247 31.5467 153.204 31.45C153.161 31.3536 153.097 31.277 153.013 31.2204C152.928 31.1641 152.82 31.1357 152.689 31.1357Z" fill="white"/>
<path d="M156.296 30.5426C156.338 30.5426 156.386 30.5451 156.442 30.5494C156.497 30.554 156.543 30.5601 156.577 30.5672L156.514 31.3488C156.487 31.3399 156.448 31.333 156.398 31.3284C156.348 31.324 156.305 31.3215 156.268 31.3215C156.161 31.3215 156.057 31.3352 155.956 31.3625C155.855 31.3898 155.764 31.4342 155.684 31.495C155.603 31.5563 155.54 31.6364 155.494 31.7356C155.447 31.835 155.424 31.9566 155.424 32.1003V33.6553H154.591V30.5999H155.222L155.345 31.1137H155.386C155.446 31.0099 155.521 30.9148 155.611 30.8282C155.702 30.7418 155.804 30.6724 155.92 30.6205C156.036 30.5686 156.161 30.5426 156.296 30.5426H156.296Z" fill="white"/>
<path d="M157.952 31.8692C157.774 31.8692 157.609 31.8388 157.459 31.7782C157.309 31.7177 157.178 31.632 157.067 31.5216C156.956 31.4112 156.871 31.2808 156.81 31.1305C156.749 30.9803 156.719 30.816 156.719 30.6379C156.719 30.4673 156.75 30.3075 156.812 30.1582C156.873 30.0089 156.96 29.8781 157.072 29.7654C157.184 29.6528 157.315 29.5645 157.465 29.5006C157.615 29.4366 157.777 29.4046 157.952 29.4046C158.122 29.4046 158.282 29.4349 158.432 29.4955C158.581 29.5561 158.712 29.642 158.824 29.753C158.937 29.8639 159.025 29.9943 159.089 30.1441C159.153 30.2938 159.185 30.4583 159.185 30.6376C159.185 30.8157 159.155 30.98 159.094 31.1303C159.034 31.2805 158.948 31.4109 158.837 31.5213C158.726 31.6317 158.595 31.7172 158.446 31.778C158.296 31.8387 158.131 31.8689 157.952 31.8689L157.952 31.8692ZM157.952 31.6544C158.09 31.6544 158.219 31.6295 158.339 31.5798C158.459 31.5302 158.565 31.4599 158.657 31.3691C158.749 31.2783 158.82 31.171 158.872 31.0469C158.923 30.9227 158.949 30.7865 158.949 30.6377C158.949 30.4978 158.924 30.3661 158.873 30.2426C158.823 30.119 158.753 30.0103 158.663 29.9163C158.572 29.8222 158.467 29.7488 158.346 29.6957C158.225 29.6427 158.094 29.6163 157.952 29.6163C157.809 29.6163 157.676 29.6415 157.554 29.6917C157.432 29.7419 157.326 29.8127 157.235 29.9041C157.145 29.9955 157.074 30.1033 157.024 30.2279C156.973 30.3524 156.948 30.4891 156.948 30.6379C156.948 30.7866 156.973 30.9229 157.022 31.047C157.071 31.1711 157.141 31.2784 157.23 31.3692C157.32 31.4601 157.426 31.5302 157.548 31.58C157.671 31.6298 157.805 31.6545 157.952 31.6545L157.952 31.6544ZM157.475 31.3723V29.8884H157.922C158.105 29.8884 158.239 29.9272 158.324 30.0048C158.409 30.0825 158.452 30.194 158.452 30.3394C158.452 30.4455 158.425 30.5289 158.372 30.5894C158.318 30.65 158.257 30.6941 158.19 30.7214L158.58 31.3723H158.275L157.955 30.8083H157.747V31.3723H157.475ZM157.747 30.5836H157.914C158.002 30.5836 158.067 30.5615 158.111 30.5171C158.154 30.4727 158.176 30.4157 158.176 30.3457C158.176 30.2659 158.156 30.2083 158.117 30.1727C158.077 30.1372 158.008 30.1194 157.911 30.1194H157.747V30.5834L157.747 30.5836Z" fill="white"/>
<path d="M162.806 30.1627C162.431 30.1627 162.136 30.2957 161.921 30.5617C161.706 30.8279 161.598 31.1949 161.598 31.6631C161.598 32.1534 161.702 32.5239 161.909 32.7753C162.115 33.0268 162.414 33.1524 162.806 33.1524C162.976 33.1524 163.14 33.1358 163.298 33.1019C163.457 33.0683 163.622 33.0251 163.793 32.9721V33.5323C163.48 33.651 163.124 33.71 162.727 33.71C162.142 33.71 161.693 33.5329 161.38 33.1785C161.066 32.8243 160.91 32.3174 160.91 31.6576C160.91 31.2422 160.986 30.8788 161.138 30.5672C161.29 30.2556 161.51 30.017 161.798 29.8512C162.086 29.6855 162.424 29.6026 162.812 29.6026C163.22 29.6026 163.597 29.6883 163.943 29.8595L163.708 30.4033C163.573 30.3397 163.431 30.2837 163.281 30.2353C163.13 30.1872 162.972 30.1628 162.806 30.1628V30.1627Z" fill="white"/>
<path d="M167.126 32.1387C167.126 32.6325 167 33.0178 166.747 33.2947C166.493 33.5718 166.141 33.7102 165.689 33.7102C165.406 33.7102 165.157 33.6465 164.94 33.5189C164.723 33.3916 164.556 33.2084 164.44 32.9696C164.323 32.731 164.265 32.4541 164.265 32.1387C164.265 31.6487 164.391 31.2661 164.642 30.9909C164.894 30.7159 165.248 30.5782 165.705 30.5782C166.143 30.5782 166.489 30.719 166.744 31.0005C166.999 31.2821 167.126 31.6617 167.126 32.1388L167.126 32.1387ZM164.927 32.1387C164.927 32.8366 165.184 33.1853 165.7 33.1853C166.21 33.1853 166.465 32.8366 166.465 32.1387C166.465 31.4483 166.208 31.103 165.694 31.103C165.425 31.103 165.229 31.1924 165.108 31.3708C164.987 31.5495 164.927 31.8052 164.927 32.1387Z" fill="white"/>
<path d="M170.272 33.6553H169.627V31.7915C169.627 31.5604 169.583 31.3876 169.495 31.2737C169.408 31.1601 169.271 31.1028 169.085 31.1028C168.838 31.1028 168.656 31.1834 168.54 31.3448C168.424 31.5059 168.367 31.7743 168.367 32.1496V33.6555H167.724V30.6328H168.227L168.318 31.0291H168.35C168.434 30.8854 168.556 30.7741 168.715 30.6956C168.875 30.6174 169.05 30.5781 169.241 30.5781C169.706 30.5781 170.014 30.7366 170.165 31.0536H170.209C170.298 30.9044 170.424 30.7877 170.586 30.7038C170.748 30.6201 170.934 30.5781 171.143 30.5781C171.504 30.5781 171.767 30.6693 171.932 30.8514C172.097 31.0337 172.179 31.3116 172.179 31.6849V33.6553H171.537V31.7915C171.537 31.5604 171.493 31.3876 171.404 31.2737C171.316 31.1601 171.179 31.1028 170.993 31.1028C170.743 31.1028 170.561 31.1808 170.445 31.3365C170.329 31.4922 170.272 31.7314 170.272 32.0539V33.6553H170.272Z" fill="white"/>
<path d="M174.469 33.71C174.086 33.71 173.789 33.5726 173.578 33.2974H173.54C173.565 33.5526 173.578 33.7074 173.578 33.7619V35H172.936V30.6328H173.455C173.469 30.6893 173.499 30.8241 173.545 31.0373H173.578C173.778 30.7312 174.079 30.5782 174.48 30.5782C174.857 30.5782 175.151 30.715 175.361 30.9882C175.571 31.2615 175.677 31.6452 175.677 32.1388C175.677 32.6325 175.569 33.018 175.356 33.2949C175.141 33.5719 174.846 33.7103 174.469 33.7103V33.71ZM174.313 31.1028C174.058 31.1028 173.872 31.1777 173.754 31.327C173.637 31.4764 173.578 31.715 173.578 32.043V32.1387C173.578 32.5068 173.636 32.7732 173.753 32.9381C173.869 33.1032 174.06 33.1855 174.324 33.1855C174.546 33.1855 174.717 33.0945 174.838 32.9122C174.958 32.7301 175.018 32.4706 175.018 32.1334C175.018 31.7961 174.958 31.5381 174.839 31.3641C174.72 31.1903 174.544 31.1031 174.313 31.1031V31.1028Z" fill="white"/>
<path d="M178.174 33.6553L178.046 33.2344H178.024C177.878 33.4186 177.731 33.5438 177.584 33.6103C177.436 33.6769 177.246 33.71 177.015 33.71C176.718 33.71 176.487 33.63 176.32 33.4695C176.153 33.3093 176.07 33.0825 176.07 32.7891C176.07 32.4774 176.185 32.2425 176.417 32.084C176.648 31.9254 177 31.8391 177.474 31.8244L177.996 31.808V31.6469C177.996 31.4539 177.951 31.3094 177.861 31.2136C177.771 31.1179 177.631 31.0702 177.442 31.0702C177.287 31.0702 177.138 31.0932 176.996 31.1385C176.854 31.1841 176.717 31.238 176.586 31.2997L176.378 30.8406C176.542 30.7551 176.722 30.69 176.917 30.6453C177.112 30.6008 177.296 30.5782 177.469 30.5782C177.853 30.5782 178.143 30.6622 178.339 30.8297C178.535 30.9975 178.633 31.2607 178.633 31.6196V33.6556H178.174V33.6553ZM177.218 33.2181C177.451 33.2181 177.638 33.153 177.779 33.0227C177.92 32.8926 177.991 32.7099 177.991 32.4748V32.2124L177.603 32.2288C177.3 32.2397 177.081 32.2902 176.943 32.3805C176.805 32.4707 176.737 32.6087 176.737 32.7945C176.737 32.9295 176.776 33.0336 176.857 33.1074C176.937 33.1811 177.057 33.2181 177.218 33.2181Z" fill="white"/>
<path d="M182.049 33.6553H181.404V31.797C181.404 31.5639 181.357 31.3898 181.263 31.2751C181.169 31.1603 181.02 31.103 180.816 31.103C180.545 31.103 180.346 31.1833 180.22 31.3435C180.095 31.5038 180.032 31.7725 180.032 32.1497V33.6556H179.39V30.633H179.892L179.983 31.0292H180.015C180.106 30.8855 180.236 30.7743 180.403 30.6958C180.571 30.6176 180.757 30.5782 180.961 30.5782C181.686 30.5782 182.049 30.9472 182.049 31.685V33.6555L182.049 33.6553Z" fill="white"/>
<path d="M182.343 30.6328H183.043L183.658 32.3463C183.751 32.5906 183.812 32.8203 183.844 33.035H183.866C183.882 32.935 183.912 32.8134 183.956 32.6703C183.999 32.5274 184.231 31.8482 184.65 30.6328H185.344L184.051 34.0572C183.816 34.6857 183.425 35 182.876 35C182.734 35 182.596 34.9846 182.461 34.9535V34.4452C182.557 34.467 182.668 34.4779 182.792 34.4779C183.101 34.4779 183.319 34.2986 183.445 33.9395L183.557 33.6553L182.343 30.6327L182.343 30.6328Z" fill="white"/>
</g>
<defs>
<clipPath id="clip0_9_170">
<rect width="194.31" height="35" fill="white"/>
</clipPath>
</defs>
</svg>
