<svg width="35" height="30" viewBox="0 0 35 30" fill="none" xmlns="http://www.w3.org/2000/svg">
<path d="M34.1528 14.5723L25.9731 0.384932C25.8356 0.146641 25.5817 0 25.3066 0H8.94901C8.67406 0 8.41995 0.146781 8.28255 0.384932L0.102844 14.5723C-0.0342815 14.81 -0.0342815 15.1029 0.102844 15.3408L8.28255 29.528C8.41981 29.7663 8.67392 29.9129 8.94901 29.9129H25.3066C25.5815 29.9129 25.8356 29.7661 25.9731 29.528L34.1528 15.3408C34.2899 15.1029 34.2899 14.8102 34.1528 14.5723ZM32.0599 15.2937L24.886 27.7048C24.7655 27.9131 24.5432 28.0414 24.3026 28.0414H23.1701V16.7017C23.6302 16.388 23.9324 15.8599 23.9324 15.261C23.9324 14.2986 23.1522 13.5182 22.1896 13.5182C21.2271 13.5182 20.4469 14.2985 20.4469 15.261C20.4469 15.8599 20.7491 16.388 21.2092 16.7017V28.0414H18.1082V9.58259H21.4461L17.1279 4.91652L12.8097 9.58259H16.1476V28.0413H13.0466V20.187C13.5066 19.8733 13.8089 19.3453 13.8089 18.7464C13.8089 17.784 13.0286 17.0036 12.0661 17.0036C11.1036 17.0036 10.3233 17.7838 10.3233 18.7464C10.3233 19.3453 10.6256 19.8733 11.0857 20.187V28.0413H9.95325C9.71258 28.0413 9.49024 27.913 9.3699 27.7046L2.19583 15.2937C2.07522 15.0851 2.07522 14.8279 2.19583 14.6193L9.36976 2.20815C9.4901 1.9998 9.71244 1.87149 9.95311 1.87149H24.3025C24.5432 1.87149 24.7655 1.9998 24.8858 2.20815L32.0598 14.6192C32.1804 14.8278 32.1804 15.085 32.0598 15.2936L32.0599 15.2937ZM21.5874 15.2609C21.5874 14.9283 21.857 14.6588 22.1895 14.6588C22.522 14.6588 22.7916 14.9284 22.7916 15.2609C22.7916 15.5933 22.522 15.863 22.1895 15.863C21.857 15.863 21.5874 15.5935 21.5874 15.2609ZM11.4639 18.7464C11.4639 18.4138 11.7335 18.1443 12.066 18.1443C12.3984 18.1443 12.6681 18.4139 12.6681 18.7464C12.6681 19.0788 12.3984 19.3485 12.066 19.3485C11.7335 19.3485 11.4639 19.079 11.4639 18.7464Z" fill="#C29C2E"/>
</svg>
