<svg width="24" height="24" viewBox="0 0 24 24" fill="none" xmlns="http://www.w3.org/2000/svg">
<path d="M23.9995 1.25C23.9995 0.560779 23.4387 0 22.7495 0H1.25C0.560779 0 0 0.560779 0 1.25V22.75C0 23.4392 0.560779 24 1.25 24H22.75C23.4392 24 24 23.4392 24 22.75C24 22.5163 23.9996 4.00345 23.9995 1.25ZM0.500027 1.25C0.500027 0.83641 0.836457 0.499981 1.25005 0.499981H22.7495C23.1631 0.499981 23.4996 0.83641 23.4996 1.25V4.22241H0.500027V1.25ZM23.5 22.75C23.5 23.1636 23.1635 23.5 22.75 23.5H1.25C0.83641 23.5 0.499981 23.1636 0.499981 22.75V4.72244H23.5V22.75Z" fill="#C9AA3F"/>
<path d="M17.5877 2.3606C17.5877 2.83559 17.2002 3.22312 16.7252 3.22312C16.2502 3.22312 15.8652 2.83564 15.8652 2.3606C15.8652 1.8856 16.2502 1.50061 16.7252 1.50061C17.2002 1.50061 17.5877 1.8856 17.5877 2.3606Z" fill="#C9AA3F"/>
<path d="M20.0428 2.3606C20.0428 2.83559 19.6578 3.22312 19.1828 3.22312C18.7078 3.22312 18.3203 2.83564 18.3203 2.3606C18.3203 1.8856 18.7078 1.50061 19.1828 1.50061C19.6578 1.50061 20.0428 1.8856 20.0428 2.3606Z" fill="#C9AA3F"/>
<path d="M22.4999 2.3606C22.4999 2.83559 22.1124 3.22312 21.6373 3.22312C21.1623 3.22312 20.7773 2.83564 20.7773 2.3606C20.7773 1.8856 21.1623 1.50061 21.6373 1.50061C22.1123 1.50061 22.4999 1.8856 22.4999 2.3606Z" fill="#C9AA3F"/>
<path d="M11.385 2.36057C11.385 2.82558 11.0075 3.20556 10.5424 3.20556H2.34499C1.87749 3.20556 1.5 2.82553 1.5 2.36057C1.5 1.89561 1.87749 1.51807 2.34499 1.51807H10.5425C11.0075 1.51807 11.385 1.89556 11.385 2.36057Z" fill="#C9AA3F"/>
<path d="M11.957 11.8251H17.2075C17.3457 11.8251 17.4575 11.7133 17.4575 11.5751C17.4575 11.4369 17.3457 11.3251 17.2075 11.3251H11.957C11.8188 11.3251 11.707 11.4369 11.707 11.5751C11.707 11.7133 11.8189 11.8251 11.957 11.8251Z" fill="#C9AA3F"/>
<path d="M11.957 13.213H21.7139C21.852 13.213 21.9639 13.1012 21.9639 12.963C21.9639 12.8248 21.852 12.713 21.7139 12.713H11.957C11.8188 12.713 11.707 12.8248 11.707 12.963C11.707 13.1012 11.8189 13.213 11.957 13.213Z" fill="#C9AA3F"/>
<path d="M11.957 14.6003H21.7139C21.852 14.6003 21.9639 14.4885 21.9639 14.3503C21.9639 14.2121 21.852 14.1003 21.7139 14.1003H11.957C11.8188 14.1003 11.707 14.2121 11.707 14.3503C11.707 14.4885 11.8189 14.6003 11.957 14.6003Z" fill="#C9AA3F"/>
<path d="M11.957 15.988H21.7139C21.852 15.988 21.9639 15.8762 21.9639 15.738C21.9639 15.5998 21.852 15.488 21.7139 15.488H11.957C11.8188 15.488 11.707 15.5998 11.707 15.738C11.707 15.8762 11.8189 15.988 11.957 15.988Z" fill="#C9AA3F"/>
<path d="M10.0377 18.1756V21.3405C10.0377 21.753 9.70015 22.0906 9.28764 22.0906H2.78517C2.37266 22.0906 2.03516 21.753 2.03516 21.3405V18.1756C2.03516 17.763 2.37266 17.4255 2.78517 17.4255H9.28768C9.70015 17.4255 10.0377 17.763 10.0377 18.1756Z" fill="#C9AA3F"/>
<path d="M10.0377 12.0756V15.2381C10.0377 15.6506 9.70015 15.9881 9.28764 15.9881H2.78517C2.37266 15.9881 2.03516 15.6506 2.03516 15.2381V12.0756C2.03516 11.6606 2.37266 11.3256 2.78517 11.3256H9.28768C9.70015 11.3256 10.0377 11.6606 10.0377 12.0756Z" fill="#C9AA3F"/>
<path d="M11.957 17.9269H17.2075C17.3457 17.9269 17.4575 17.8151 17.4575 17.6769C17.4575 17.5387 17.3457 17.4269 17.2075 17.4269H11.957C11.8188 17.4269 11.707 17.5387 11.707 17.6769C11.707 17.8151 11.8189 17.9269 11.957 17.9269Z" fill="#C9AA3F"/>
<path d="M11.957 19.3144H21.7139C21.852 19.3144 21.9639 19.2026 21.9639 19.0644C21.9639 18.9263 21.852 18.8145 21.7139 18.8145H11.957C11.8188 18.8145 11.707 18.9263 11.707 19.0644C11.707 19.2026 11.8189 19.3144 11.957 19.3144Z" fill="#C9AA3F"/>
<path d="M11.957 20.7019H21.7139C21.852 20.7019 21.9639 20.5901 21.9639 20.4519C21.9639 20.3137 21.852 20.2019 21.7139 20.2019H11.957C11.8188 20.2019 11.707 20.3137 11.707 20.4519C11.707 20.5901 11.8189 20.7019 11.957 20.7019Z" fill="#C9AA3F"/>
<path d="M11.957 22.0893H21.7139C21.852 22.0893 21.9639 21.9775 21.9639 21.8393C21.9639 21.7012 21.852 21.5894 21.7139 21.5894H11.957C11.8188 21.5894 11.707 21.7012 11.707 21.8393C11.707 21.9775 11.8189 22.0893 11.957 22.0893Z" fill="#C9AA3F"/>
<path d="M7.98278 7.99534C8.20938 7.84599 8.33922 7.62033 8.33922 7.30907C8.33922 6.82648 8.00617 6.42822 7.26403 6.42822H6.19703C6.04492 6.42822 5.93115 6.55198 5.93115 6.69874V9.44311C5.93115 9.59245 6.04698 9.70899 6.19703 9.70899H7.29117C8.1842 9.70899 8.51553 9.30299 8.51553 8.7605C8.51553 8.39238 8.30725 8.14004 7.98278 7.99534ZM7.99281 8.7424C7.99281 9.12941 7.63369 9.19991 7.25048 9.19991H6.46741V8.28953H7.25503C7.99281 8.28953 7.99281 8.63037 7.99281 8.7424ZM6.46741 7.79368V6.93772H7.23243C7.52836 6.93772 7.82092 7.04802 7.82092 7.34081C7.82092 7.7145 7.52761 7.79368 7.15551 7.79368H6.46741Z" fill="#C9AA3F"/>
<path d="M11.0167 9.17266H9.60072V6.67632C9.60072 6.50165 9.46834 6.41133 9.33512 6.40898C9.20021 6.40664 9.06445 6.49444 9.06445 6.67632V9.36185C9.06445 9.55273 9.21774 9.70901 9.41162 9.70901H11.0167C11.1635 9.70901 11.2871 9.5959 11.2871 9.44313C11.2871 9.29514 11.1685 9.17266 11.0167 9.17266Z" fill="#C9AA3F"/>
<path d="M13.1279 6.38306C12.1729 6.38306 11.4974 7.03881 11.4785 8.07008C11.4969 9.07117 12.1459 9.75415 13.1279 9.75415C14.1164 9.75415 14.7579 9.05626 14.7772 8.06764C14.7581 7.09576 14.1283 6.38306 13.1279 6.38306ZM14.241 8.06886C14.241 8.74557 13.8234 9.24512 13.1279 9.24512C12.423 9.24512 12.0149 8.73717 12.0149 8.06886C12.0149 7.39985 12.4224 6.8926 13.1279 6.8926C13.8214 6.8926 14.241 7.38902 14.241 8.06886Z" fill="#C9AA3F"/>
<path d="M17.7889 7.85253H16.8984C16.7606 7.85253 16.6504 7.96269 16.6504 8.1006C16.6504 8.23804 16.7607 8.34838 16.8984 8.34838H17.5818V9.06667C17.3566 9.18189 17.1116 9.24048 16.853 9.24048C16.1258 9.24048 15.6858 8.75138 15.6858 8.07327C15.6858 7.34097 16.1547 6.90629 16.8305 6.90629C17.1329 6.90629 17.3926 6.97707 17.6885 7.15262C17.7931 7.20536 17.9209 7.18511 17.9947 7.10842C18.1161 6.98049 18.0637 6.77803 17.9442 6.71827C17.5431 6.46636 17.1907 6.38306 16.7852 6.38306C15.8727 6.38306 15.1494 7.05554 15.1494 8.07322C15.1494 9.07229 15.8295 9.75415 16.7988 9.75415C17.1598 9.75415 17.5175 9.66673 17.8606 9.49535C17.9798 9.43961 18.0685 9.31497 18.0685 9.15817V8.13205C18.0685 7.97937 17.9479 7.85253 17.7889 7.85253Z" fill="#C9AA3F"/>
</svg>
