<svg width="27" height="27" viewBox="0 0 27 27" fill="none" xmlns="http://www.w3.org/2000/svg">
<g clip-path="url(#clip0_1347_317)">
<path d="M24.2053 2.9288C24.1501 2.92656 24.0949 2.92619 24.0396 2.92775H21.9577V1.13857C21.9578 0.422901 21.2746 0 20.5589 0H18.6397C17.924 0 17.4035 0.422901 17.4035 1.13857V2.92768H9.59629V1.13857C9.59629 0.422901 9.07582 0 8.36015 0H6.44084C5.72523 0 5.04207 0.422901 5.04207 1.13857V2.92768H2.96019C1.63121 2.89064 0.523833 3.93799 0.486785 5.2669C0.485229 5.32207 0.485602 5.37736 0.487844 5.43253V24.2349C0.487844 25.6662 1.52878 26.9999 2.96012 26.9999H24.0397C25.471 26.9999 26.512 25.6662 26.512 24.2349V5.43253C26.5664 4.10417 25.5336 2.98322 24.2053 2.9288ZM18.6397 1.30121H20.6565V4.87949H18.6397V1.30121ZM6.4409 1.30121H8.29515V4.87949H6.4409V1.30121ZM25.2108 24.2349C25.2108 24.9506 24.7554 25.6987 24.0397 25.6987H2.96019C2.24452 25.6987 1.78911 24.9506 1.78911 24.2349V10.4097H25.2108V24.2349ZM25.2108 5.43253V9.10844H1.78905V5.43253C1.73395 4.8242 2.18244 4.28636 2.79076 4.23126C2.84705 4.22615 2.90371 4.2254 2.96012 4.22895H5.04207V4.94462C5.04207 5.66029 5.72517 6.18076 6.44084 6.18076H8.36015C9.02464 6.199 9.57804 5.67505 9.59629 5.01056C9.59691 4.98858 9.59691 4.9666 9.59629 4.94462V4.22889H17.4035V4.94456C17.3853 5.60905 17.9092 6.16246 18.5737 6.1807C18.5957 6.18132 18.6177 6.18132 18.6397 6.1807H20.559C21.2746 6.1807 21.9578 5.66023 21.9578 4.94456V4.22889H24.0397C24.6493 4.19047 25.1747 4.65353 25.2131 5.26317C25.2166 5.31958 25.2159 5.37624 25.2108 5.43253Z" fill="white"/>
<path d="M9.88903 19.2903L9.30349 22.5434C9.28033 22.6829 9.30324 22.8262 9.3688 22.9516C9.53536 23.2699 9.9285 23.393 10.2469 23.2265L13.1745 21.6976L16.1022 23.2265L16.395 23.2915C16.5361 23.294 16.6739 23.2481 16.7853 23.1614C16.9798 23.0194 17.0798 22.7816 17.0456 22.5433L16.4601 19.2903L18.8348 17.0132C19.0047 16.8296 19.0663 16.5706 18.9974 16.3301C18.9098 16.1078 18.7124 15.9475 18.4769 15.9072L15.2239 15.4192L13.7601 12.459C13.6963 12.3272 13.5899 12.2208 13.4582 12.1571C13.1348 12.0005 12.7457 12.1356 12.589 12.459L11.1252 15.4192L7.87215 15.9072C7.63666 15.9474 7.43929 16.1078 7.35168 16.3301C7.28275 16.5706 7.34446 16.8296 7.51431 17.0132L9.88903 19.2903ZM11.6782 16.6554C11.8825 16.6249 12.0556 16.4889 12.1336 16.2976L13.1745 14.2156L14.2155 16.2976C14.2936 16.4889 14.4666 16.6249 14.6709 16.6554L16.9805 16.9807L15.3215 18.5747C15.1669 18.7277 15.0945 18.9451 15.1263 19.1602L15.5166 21.4698L13.4672 20.3638L13.1745 20.2988L12.8817 20.3638L10.8323 21.4698L11.2227 19.1602C11.2546 18.9451 11.182 18.7277 11.0275 18.5747L9.36843 16.9807L11.6782 16.6554Z" fill="white"/>
</g>
<defs>
<clipPath id="clip0_1347_317">
<rect width="27" height="27" fill="white"/>
</clipPath>
</defs>
</svg>
