<svg width="27" height="27" viewBox="0 0 27 27" fill="none" xmlns="http://www.w3.org/2000/svg">
<g clip-path="url(#clip0_1313_2438)">
<path d="M24.2053 2.9288C24.1501 2.92656 24.0949 2.92619 24.0397 2.92775H21.9577V1.13857C21.9578 0.422901 21.2746 0 20.559 0H18.6397C17.9241 0 17.4036 0.422901 17.4036 1.13857V2.92768H9.59635V1.13857C9.59635 0.422901 9.07588 0 8.36021 0H6.4409C5.7253 0 5.04213 0.422901 5.04213 1.13857V2.92768H2.96025C1.63127 2.89064 0.523894 3.93799 0.486846 5.2669C0.48529 5.32207 0.485663 5.37736 0.487905 5.43253V24.2349C0.487905 25.6662 1.52885 26.9999 2.96018 26.9999H24.0398C25.4711 26.9999 26.512 25.6662 26.512 24.2349V5.43253C26.5665 4.10417 25.5337 2.98322 24.2053 2.9288ZM18.6397 1.30121H20.6566V4.87949H18.6397V1.30121ZM6.44096 1.30121H8.29521V4.87949H6.44096V1.30121ZM25.2108 24.2349C25.2108 24.9506 24.7554 25.6987 24.0398 25.6987H2.96025C2.24458 25.6987 1.78917 24.9506 1.78917 24.2349V10.4097H25.2108V24.2349ZM25.2108 5.43253V9.10844H1.78911V5.43253C1.73401 4.8242 2.1825 4.28636 2.79082 4.23126C2.84711 4.22615 2.90377 4.2254 2.96018 4.22895H5.04213V4.94462C5.04213 5.66029 5.72523 6.18076 6.4409 6.18076H8.36021C9.0247 6.199 9.5781 5.67505 9.59635 5.01056C9.59697 4.98858 9.59697 4.9666 9.59635 4.94462V4.22889H17.4036V4.94456C17.3853 5.60905 17.9093 6.16246 18.5738 6.1807C18.5958 6.18132 18.6178 6.18132 18.6397 6.1807H20.559C21.2747 6.1807 21.9578 5.66023 21.9578 4.94456V4.22889H24.0398C24.6494 4.19047 25.1747 4.65353 25.2131 5.26317C25.2167 5.31958 25.2159 5.37624 25.2108 5.43253Z" fill="#C9AA3F"/>
<path d="M9.88915 19.2903L9.30361 22.5434C9.28045 22.6829 9.30336 22.8262 9.36893 22.9516C9.53548 23.2699 9.92862 23.393 10.247 23.2265L13.1747 21.6976L16.1023 23.2265L16.3951 23.2915C16.5363 23.294 16.6741 23.2481 16.7855 23.1614C16.9799 23.0194 17.08 22.7816 17.0457 22.5433L16.4602 19.2903L18.8349 17.0132C19.0048 16.8296 19.0665 16.5706 18.9975 16.3301C18.9099 16.1078 18.7125 15.9475 18.4771 15.9072L15.224 15.4192L13.7602 12.459C13.6964 12.3272 13.59 12.2208 13.4583 12.1571C13.1349 12.0005 12.7458 12.1356 12.5891 12.459L11.1253 15.4192L7.87227 15.9072C7.63679 15.9474 7.43941 16.1078 7.3518 16.3301C7.28287 16.5706 7.34458 16.8296 7.51444 17.0132L9.88915 19.2903ZM11.6783 16.6554C11.8826 16.6249 12.0557 16.4889 12.1337 16.2976L13.1747 14.2156L14.2156 16.2976C14.2937 16.4889 14.4667 16.6249 14.671 16.6554L16.9807 16.9807L15.3216 18.5747C15.1671 18.7277 15.0946 18.9451 15.1264 19.1602L15.5167 21.4698L13.4674 20.3638L13.1746 20.2988L12.8818 20.3638L10.8325 21.4698L11.2228 19.1602C11.2547 18.9451 11.1821 18.7277 11.0276 18.5747L9.36855 16.9807L11.6783 16.6554Z" fill="#C9AA3F"/>
</g>
<defs>
<clipPath id="clip0_1313_2438">
<rect width="27" height="27" fill="white"/>
</clipPath>
</defs>
</svg>
