<svg width="24" height="24" viewBox="0 0 24 24" fill="none" xmlns="http://www.w3.org/2000/svg">
<path d="M14.3438 0.84375V8.4375C14.3438 8.66128 14.2549 8.87589 14.0966 9.03412C13.9384 9.19236 13.7238 9.28125 13.5 9.28125H0.84375C0.619974 9.28125 0.405362 9.19236 0.247129 9.03412C0.0888948 8.87589 0 8.66128 0 8.4375V3.375C0.000960374 2.48019 0.356848 1.6223 0.989575 0.989575C1.6223 0.356848 2.48019 0.000960374 3.375 0H13.5C13.7238 0 13.9384 0.0888948 14.0966 0.247129C14.2549 0.405362 14.3438 0.619974 14.3438 0.84375ZM6.75 10.9688H0.84375C0.619974 10.9688 0.405362 11.0576 0.247129 11.2159C0.0888948 11.3741 0 11.5887 0 11.8125V20.25C0.000960374 21.1448 0.356848 22.0027 0.989575 22.6354C1.6223 23.2682 2.48019 23.624 3.375 23.625H6.75C6.97378 23.625 7.18839 23.5361 7.34662 23.3779C7.50486 23.2196 7.59375 23.005 7.59375 22.7812V11.8125C7.59375 11.5887 7.50486 11.3741 7.34662 11.2159C7.18839 11.0576 6.97378 10.9688 6.75 10.9688ZM22.7812 13.5H10.125C9.90122 13.5 9.68661 13.5889 9.52838 13.7471C9.37014 13.9054 9.28125 14.12 9.28125 14.3438V22.7812C9.28125 23.005 9.37014 23.2196 9.52838 23.3779C9.68661 23.5361 9.90122 23.625 10.125 23.625H20.25C21.1448 23.624 22.0027 23.2682 22.6354 22.6354C23.2682 22.0027 23.624 21.1448 23.625 20.25V14.3438C23.625 14.12 23.5361 13.9054 23.3779 13.7471C23.2196 13.5889 23.005 13.5 22.7812 13.5ZM20.25 0H16.875C16.6512 0 16.4366 0.0888948 16.2784 0.247129C16.1201 0.405362 16.0312 0.619974 16.0312 0.84375V10.9688C16.0312 11.1925 16.1201 11.4071 16.2784 11.5654C16.4366 11.7236 16.6512 11.8125 16.875 11.8125H22.7812C23.005 11.8125 23.2196 11.7236 23.3779 11.5654C23.5361 11.4071 23.625 11.1925 23.625 10.9688V3.375C23.624 2.48019 23.2682 1.6223 22.6354 0.989575C22.0027 0.356848 21.1448 0.000960374 20.25 0Z" fill="#C9AA3F"/>
</svg>
