<svg width="29" height="24" viewBox="0 0 29 24" fill="none" xmlns="http://www.w3.org/2000/svg">
<path d="M25.1429 20.5715H24C23.6842 20.5715 23.4286 20.8271 23.4286 21.143C23.4286 21.4588 23.6842 21.7144 24 21.7144H25.1429C25.4587 21.7144 25.7143 21.4588 25.7143 21.143C25.7143 20.8271 25.4587 20.5715 25.1429 20.5715Z" fill="white"/>
<path d="M21.7142 20.5715H20.5714C20.2555 20.5715 19.9999 20.8271 19.9999 21.143C19.9999 21.4588 20.2555 21.7144 20.5714 21.7144H21.7142C22.0301 21.7144 22.2857 21.4588 22.2857 21.143C22.2857 20.8271 22.0301 20.5715 21.7142 20.5715Z" fill="white"/>
<path d="M18.2858 20.5715H17.1429C16.8271 20.5715 16.5715 20.8271 16.5715 21.143C16.5715 21.4588 16.8271 21.7144 17.1429 21.7144H18.2858C18.6016 21.7144 18.8572 21.4588 18.8572 21.143C18.8572 20.8271 18.6016 20.5715 18.2858 20.5715Z" fill="white"/>
<path d="M14.8571 20.5715H13.7143C13.3984 20.5715 13.1428 20.8271 13.1428 21.143C13.1428 21.4588 13.3984 21.7144 13.7143 21.7144H14.8571C15.173 21.7144 15.4285 21.4588 15.4285 21.143C15.4285 20.8271 15.173 20.5715 14.8571 20.5715Z" fill="white"/>
<path d="M11.4284 20.5715H10.2855C9.96969 20.5715 9.71411 20.8271 9.71411 21.143C9.71411 21.4588 9.96969 21.7144 10.2855 21.7144H11.4284C11.7442 21.7144 11.9998 21.4588 11.9998 21.143C11.9998 20.8271 11.7442 20.5715 11.4284 20.5715Z" fill="white"/>
<path d="M7.99999 20.5715H6.85713C6.54129 20.5715 6.28571 20.8271 6.28571 21.143C6.28571 21.4588 6.54129 21.7144 6.85713 21.7144H7.99999C8.31584 21.7144 8.57142 21.4588 8.57142 21.143C8.57142 20.8271 8.31584 20.5715 7.99999 20.5715Z" fill="white"/>
<path d="M4.57152 20.5715H3.42867C3.11282 20.5715 2.85724 20.8271 2.85724 21.143C2.85724 21.4588 3.11282 21.7144 3.42867 21.7144H4.57152C4.88737 21.7144 5.14295 21.4588 5.14295 21.143C5.14295 20.8271 4.88737 20.5715 4.57152 20.5715Z" fill="white"/>
<path d="M18.857 18.2855H9.71419C9.39834 18.2855 9.14276 18.541 9.14276 18.8569C9.14276 19.1727 9.39834 19.4283 9.71419 19.4283H18.857C19.1729 19.4283 19.4285 19.1727 19.4285 18.8569C19.4285 18.541 19.1729 18.2855 18.857 18.2855Z" fill="white"/>
<path d="M26.8571 0H1.71429C0.768971 0 0 0.768971 0 1.71429V22.2857C0 23.231 0.768971 24 1.71429 24H26.8571C27.8025 24 28.5714 23.231 28.5714 22.2857V1.71429C28.5714 0.768971 27.8025 0 26.8571 0ZM27.4286 22.2857C27.4286 22.601 27.1724 22.8571 26.8571 22.8571H1.71429C1.39899 22.8571 1.14286 22.601 1.14286 22.2857V1.71429C1.14286 1.39899 1.39899 1.14286 1.71429 1.14286H26.8571C27.1724 1.14286 27.4286 1.39899 27.4286 1.71429V22.2857Z" fill="white"/>
<path d="M14.2857 8.00022C14.6013 8.00022 14.8571 7.74438 14.8571 7.42879C14.8571 7.1132 14.6013 6.85736 14.2857 6.85736C13.9701 6.85736 13.7142 7.1132 13.7142 7.42879C13.7142 7.74438 13.9701 8.00022 14.2857 8.00022Z" fill="white"/>
<path d="M22.9755 14.1676C22.7523 13.9444 22.3907 13.9444 22.1675 14.1676C21.9443 14.3908 21.9443 14.7524 22.1675 14.9756L22.6206 15.4288L22.1675 15.8819C21.9443 16.1051 21.9443 16.4667 22.1675 16.6899C22.3888 16.9112 22.7545 16.9109 22.9755 16.6899L23.8326 15.8328C24.0559 15.6096 24.0559 15.2479 23.8326 15.0247L22.9755 14.1676Z" fill="white"/>
<path d="M24.5716 12.4638V3.99993C24.5716 3.05462 23.8026 2.28564 22.8573 2.28564H5.71446C4.76915 2.28564 4.00017 3.05462 4.00017 3.99993V12.4638C2.97708 13.0577 2.28589 14.1627 2.28589 15.4285C2.28589 17.3191 3.82384 18.8571 5.71446 18.8571C6.98026 18.8571 8.08524 18.1659 8.67916 17.1428H19.8926C20.4865 18.1659 21.5915 18.8571 22.8573 18.8571C24.7479 18.8571 26.2859 17.3191 26.2859 15.4285C26.2859 14.1627 25.5947 13.0577 24.5716 12.4638ZM5.14303 3.99993C5.14303 3.68464 5.39917 3.4285 5.71446 3.4285H22.8573C23.1726 3.4285 23.4287 3.68464 23.4287 3.99993V12.0515C23.2425 12.0201 23.0524 11.9999 22.8573 11.9999C22.6623 11.9999 22.4722 12.0201 22.2859 12.0515V5.14279C22.2859 4.82694 22.0303 4.57136 21.7145 4.57136H6.85732C6.54147 4.57136 6.28589 4.82694 6.28589 5.14279V12.0515C6.09961 12.0201 5.90953 11.9999 5.71446 11.9999C5.51939 11.9999 5.32931 12.0201 5.14303 12.0515V3.99993ZM19.8926 13.7142H8.67916C8.37839 13.1961 7.94685 12.7646 7.42875 12.4638V12.2365L10.2859 9.37939C10.2859 9.37939 13.3104 12.4039 13.3104 12.404C13.532 12.6255 13.8977 12.6247 14.1185 12.4039L18.2859 8.23654L21.143 11.0937V12.4638C20.6249 12.7646 20.1934 13.1961 19.8926 13.7142ZM21.143 9.47761L18.6899 7.02448C18.4667 6.80127 18.1051 6.80127 17.8819 7.02448L13.7145 11.1919L10.6899 8.16734C10.4667 7.94413 10.1051 7.94413 9.88187 8.16734L7.42875 10.6205V5.71422H21.143V9.47761ZM5.71446 17.7142C4.45386 17.7142 3.42875 16.6891 3.42875 15.4285C3.42875 14.1679 4.45386 13.1428 5.71446 13.1428C6.97506 13.1428 8.00017 14.1679 8.00017 15.4285C8.00017 16.6891 6.97506 17.7142 5.71446 17.7142ZM9.09141 15.9999C9.12287 15.8136 9.14303 15.6236 9.14303 15.4285C9.14303 15.2334 9.12287 15.0434 9.09141 14.8571H19.4804C19.4489 15.0434 19.4287 15.2334 19.4287 15.4285C19.4287 15.6236 19.4489 15.8136 19.4804 15.9999H9.09141ZM22.8573 17.7142C21.5967 17.7142 20.5716 16.6891 20.5716 15.4285C20.5716 14.1679 21.5967 13.1428 22.8573 13.1428C24.1179 13.1428 25.143 14.1679 25.143 15.4285C25.143 16.6891 24.1179 17.7142 22.8573 17.7142Z" fill="white"/>
<path d="M6.40406 14.1676C6.18085 13.9444 5.81924 13.9444 5.59602 14.1676L4.73888 15.0247C4.51567 15.2479 4.51567 15.6096 4.73888 15.8328C4.73888 15.8328 5.59273 16.6866 5.59601 16.6899C5.80452 16.8984 6.18188 16.9121 6.40406 16.6899C6.62727 16.4667 6.62727 16.1051 6.40406 15.8819L5.95093 15.4288L6.40406 14.9756C6.62727 14.7524 6.62727 14.3908 6.40406 14.1676Z" fill="white"/>
</svg>
