<svg width="27" height="27" viewBox="0 0 27 27" fill="none" xmlns="http://www.w3.org/2000/svg">
<path d="M15.8823 21.1744H11.1172C10.4861 21.1737 9.88107 20.9227 9.4348 20.4764C8.98853 20.0302 8.73751 19.4251 8.73682 18.794V15.6421C8.73682 15.5581 8.77015 15.4777 8.82949 15.4183C8.88883 15.359 8.96931 15.3257 9.05322 15.3257C9.13714 15.3257 9.21762 15.359 9.27696 15.4183C9.33629 15.4777 9.36963 15.5581 9.36963 15.6421V18.794C9.37019 19.2573 9.55449 19.7015 9.88211 20.0291C10.2097 20.3567 10.6539 20.5411 11.1172 20.5416H15.8823C16.3456 20.5411 16.7898 20.3567 17.1175 20.0291C17.4451 19.7015 17.6294 19.2573 17.6299 18.794V15.6421C17.6299 15.5581 17.6633 15.4777 17.7226 15.4183C17.782 15.359 17.8624 15.3257 17.9463 15.3257C18.0303 15.3257 18.1107 15.359 18.1701 15.4183C18.2294 15.4777 18.2628 15.5581 18.2628 15.6421V18.794C18.2621 19.4251 18.011 20.0302 17.5648 20.4764C17.1185 20.9227 16.5134 21.1737 15.8823 21.1744Z" fill="#E5E7E8"/>
<path d="M13.5 24.4851C13.4161 24.4851 13.3356 24.4518 13.2763 24.3924C13.2169 24.3331 13.1836 24.2526 13.1836 24.1687V20.858C13.1836 20.7741 13.2169 20.6936 13.2763 20.6343C13.3356 20.575 13.4161 20.5416 13.5 20.5416C13.5839 20.5416 13.6644 20.575 13.7237 20.6343C13.7831 20.6936 13.8164 20.7741 13.8164 20.858V24.1687C13.8164 24.2526 13.7831 24.3331 13.7237 24.3924C13.6644 24.4518 13.5839 24.4851 13.5 24.4851Z" fill="#E5E7E8"/>
<path d="M10.2686 17.4593H9.05566C8.97175 17.4593 8.89127 17.426 8.83193 17.3666C8.77259 17.3073 8.73926 17.2268 8.73926 17.1429C8.73926 17.059 8.77259 16.9785 8.83193 16.9192C8.89127 16.8598 8.97175 16.8265 9.05566 16.8265H10.2686C10.3525 16.8265 10.433 16.8598 10.4923 16.9192C10.5516 16.9785 10.585 17.059 10.585 17.1429C10.585 17.2268 10.5516 17.3073 10.4923 17.3666C10.433 17.426 10.3525 17.4593 10.2686 17.4593Z" fill="#E5E7E8"/>
<path d="M17.9468 17.4593H16.7339C16.65 17.4593 16.5695 17.426 16.5102 17.3666C16.4508 17.3073 16.4175 17.2268 16.4175 17.1429C16.4175 17.059 16.4508 16.9785 16.5102 16.9192C16.5695 16.8598 16.65 16.8265 16.7339 16.8265H17.9468C18.0307 16.8265 18.1112 16.8598 18.1705 16.9192C18.2298 16.9785 18.2632 17.059 18.2632 17.1429C18.2632 17.2268 18.2298 17.3073 18.1705 17.3666C18.1112 17.426 18.0307 17.4593 17.9468 17.4593Z" fill="#E5E7E8"/>
<path d="M24.6164 11.7281V15.1421C24.4487 14.6942 24.1917 14.2849 23.8611 13.9392C23.5306 13.5935 23.1332 13.3185 22.6932 13.1309V11.7281C22.6932 9.28155 21.7213 6.93518 19.9913 5.20519C18.2613 3.4752 15.9149 2.5033 13.4684 2.5033C8.3816 2.5033 4.24354 6.64137 4.24354 11.7281V13.1604C3.78811 13.3654 3.38127 13.6645 3.04978 14.0381C2.7183 14.4117 2.46969 14.8512 2.32031 15.3278V11.7281C2.32036 9.52328 2.97421 7.36797 4.19918 5.53473C5.42414 3.70149 7.16521 2.27266 9.20222 1.42891C11.2392 0.585159 13.4807 0.364391 15.6432 0.79452C17.8056 1.22465 19.792 2.28636 21.3511 3.84539C22.3896 4.87812 23.2129 6.10658 23.7734 7.45966C24.3339 8.81274 24.6204 10.2636 24.6164 11.7281Z" fill="#E5E7E8"/>
<path d="M5.68846 13.5374H7.09436C7.3475 13.5374 7.59028 13.638 7.76928 13.817C7.94829 13.996 8.04885 14.2388 8.04885 14.4919V21.4956C8.04885 21.7487 7.94829 21.9915 7.76928 22.1705C7.59028 22.3495 7.3475 22.4501 7.09436 22.4501H5.68846C4.75307 22.4497 3.85613 22.0778 3.19486 21.4162C2.53358 20.7546 2.16211 19.8575 2.16211 18.9222V17.0654C2.16211 16.1297 2.5338 15.2324 3.19542 14.5708C3.85703 13.9091 4.75437 13.5374 5.69004 13.5374H5.68846Z" fill="#E5E7E8"/>
<path d="M21.3114 22.4501H19.9055C19.7802 22.4501 19.6561 22.4254 19.5403 22.3774C19.4245 22.3294 19.3192 22.2591 19.2306 22.1705C19.142 22.0819 19.0717 21.9767 19.0237 21.8608C18.9757 21.745 18.951 21.6209 18.951 21.4956V14.4919C18.951 14.3666 18.9757 14.2425 19.0237 14.1267C19.0717 14.0109 19.142 13.9056 19.2306 13.817C19.3192 13.7284 19.4245 13.6581 19.5403 13.6101C19.6561 13.5621 19.7802 13.5374 19.9055 13.5374H21.3114C22.2471 13.5374 23.1444 13.9091 23.806 14.5707C24.4677 15.2324 24.8394 16.1297 24.8394 17.0654V18.9221C24.8394 19.8578 24.4677 20.7552 23.806 21.4168C23.1444 22.0784 22.2471 22.4501 21.3114 22.4501Z" fill="#E5E7E8"/>
<path d="M18.8904 24.1687H8.10988C7.50176 24.1687 7.00879 24.6617 7.00879 25.2698V25.3188C7.00879 25.927 7.50176 26.4199 8.10988 26.4199H18.8904C19.4985 26.4199 19.9915 25.927 19.9915 25.3188V25.2698C19.9915 24.6617 19.4985 24.1687 18.8904 24.1687Z" fill="#E5E7E8"/>
<path d="M16.7844 15.6421V17.3628C16.7842 17.9549 16.5489 18.5226 16.1302 18.9413C15.7115 19.3599 15.1437 19.595 14.5516 19.595H12.4486C11.8565 19.595 11.2887 19.3598 10.8701 18.9412C10.4515 18.5226 10.2163 17.9548 10.2163 17.3628V15.6421H16.7844Z" fill="#E5E7E8"/>
<path d="M14.5518 7.80469H12.4487C11.8953 7.80466 11.3616 8.01022 10.9512 8.38148C10.5407 8.75273 10.2828 9.26321 10.2275 9.81387H16.7729C16.7176 9.26321 16.4597 8.75273 16.0493 8.38148C15.6389 8.01022 15.1052 7.80466 14.5518 7.80469Z" fill="#E5E7E8"/>
<path d="M16.7844 11.3157V10.4477H16.7838H10.2163V11.3157H16.7838H16.7844Z" fill="#E5E7E8"/>
<path d="M16.7838 11.9485H10.2163V12.8166H16.7838H16.7844V11.9485H16.7838Z" fill="#E5E7E8"/>
<path d="M10.2163 13.4494V15.0093H16.7844V13.4494H16.7838H10.2163Z" fill="#E5E7E8"/>
</svg>
